Coordinates
version=1
nRows=7
nColumns=42
inDegrees=yes

Units are S.I. units (second, meters, Newtons, ...)
If the header above contains a line with 'inDegrees', this indicates whether rotational values are in degrees (yes) or radians (no).

endheader
time	pelvis_tilt	pelvis_list	pelvis_rotation	pelvis_tx	pelvis_ty	pelvis_tz	hip_flexion_r	hip_adduction_r	hip_rotation_r	knee_angle_r	knee_adduction_r	knee_angle_r_beta	ankle_angle_r	subtalar_angle_r	mtp_angle_r	hip_flexion_l	hip_adduction_l	hip_rotation_l	knee_angle_l	knee_adduction_l	knee_angle_l_beta	ankle_angle_l	subtalar_angle_l	mtp_angle_l	lumbar_extension	lumbar_bending	lumbar_rotation	arm_flex_r	arm_add_r	arm_rot_r	elbow_flex_r	pro_sup_r	wrist_flex_r	wrist_dev_r	arm_flex_l	arm_add_l	arm_rot_l	elbow_flex_l	pro_sup_l	wrist_flex_l	wrist_dev_l
      1.16000000	      5.76254486	     -4.53109358	      3.78795648	      0.42421610	      1.00656986	      0.29597376	     71.66068479	     -1.89270904	      1.45194486	     89.50157291	      5.85288448	      1.56209713	    -38.42156663	     -6.83763566	     -0.00000000	      3.47601104	     -5.45930314	    -11.46757621	     16.42213103	      4.70865390	      0.28662026	      0.67472180	      3.32351292	    -10.00000000	    -31.49836720	     14.12173498	      4.98944263	     -8.55501869	    -10.78281785	    -26.72266912	     63.24269850	     90.00000001	      0.00000000	      0.00000000	     -9.47916710	    -30.68991486	    -18.79257692	     93.31667608	     90.00000001	      0.00000000	      0.00000000
      1.16500000	      5.43479297	     -4.33763444	      4.05732084	      0.42625895	      1.00575329	      0.29667213	     70.85000319	     -2.10438504	      1.58738586	     89.59373615	      5.85288448	      1.56370568	    -38.42301815	     -6.80419566	     -0.00000000	      3.74366304	     -5.25361913	    -11.10642129	     16.44066227	      4.70865390	      0.28694369	      0.90919186	      3.33731946	    -10.00000000	    -30.78919033	     13.80290205	      4.69190373	     -8.47518798	    -10.90464021	    -26.84032759	     63.78565806	     90.00000001	      0.00000000	      0.00000000	    -10.09821341	    -30.74969608	    -19.29695000	     92.69236670	     90.00000001	      0.00000000	      0.00000000
      1.17000000	      4.94407573	     -4.42374994	      3.94846685	      0.42876205	      1.00558263	      0.29779576	     70.07047323	     -1.84941058	      1.58779959	     89.50153302	      5.85288448	      1.56209644	    -38.33074657	     -6.80985369	     -0.00000000	      3.85931636	     -5.34437559	    -11.27762237	     15.96997178	      4.70865390	      0.27872859	      1.00821543	      3.26337408	    -10.00000000	    -29.97881320	     13.61322354	      4.67060044	     -8.31116887	    -11.07611898	    -26.85710044	     64.08186685	     90.00000001	      0.00000000	      0.00000000	    -10.85079387	    -30.44513621	    -20.17658087	     91.87096334	     90.00000001	      0.00000000	      0.00000000
      1.17500000	      4.62900454	     -4.47214244	      4.17864730	      0.43044027	      1.00509458	      0.29832292	     69.20193384	     -1.88525878	      1.54554462	     89.40995262	      5.85288448	      1.56049806	    -38.42122086	     -6.75683206	     -0.00000000	      4.14000204	     -5.39946339	    -11.11923201	     16.00356664	      4.70865390	      0.27931493	      1.06432160	      3.31115259	    -10.00000000	    -29.42923172	     13.42073411	      4.86259342	     -8.26162224	    -11.36506349	    -26.93369490	     64.24621410	     90.00000001	      0.00000000	      0.00000000	    -11.06763510	    -30.54083745	    -20.39945642	     91.65507682	     90.00000001	      0.00000000	      0.00000000
      1.18000000	      4.10104703	     -4.62798418	      4.29467101	      0.43278700	      1.00441118	      0.29908096	     68.53002639	     -1.96687538	      1.25513575	     89.36843981	      5.85288448	      1.55977352	    -38.08492641	     -6.60350961	     -0.00000000	      4.55625056	     -5.54392351	    -10.86425456	     15.90866018	      4.70865390	      0.27765850	      1.22882607	      3.14819956	    -10.00000000	    -28.53616877	     13.59382014	      4.37009431	     -8.13706111	    -11.72009686	    -26.62963043	     64.86781042	     90.00000001	      0.00000000	      0.00000000	    -12.09808456	    -29.72806311	    -22.13917353	     90.42908866	     90.00000001	      0.00000000	      0.00000000
      1.18500000	      3.84540359	     -4.43222396	      4.55548272	      0.43476223	      1.00394807	      0.30001193	     67.64697216	     -2.08860400	      1.46263163	     89.40091892	      5.85288448	      1.56034039	    -38.19560921	     -6.72434929	     -0.00000000	      4.61757569	     -5.37714029	    -10.79140412	     15.73759070	      4.70865390	      0.27467277	      1.38108296	      3.38311749	    -10.00000000	    -28.01134923	     13.24206706	      4.01752771	     -7.99141632	    -11.88055280	    -26.53391305	     65.38246922	     90.00000001	      0.00000000	      0.00000000	    -12.76718718	    -29.92363633	    -22.77783832	     89.62085234	     90.00000001	      0.00000000	      0.00000000
      1.19000000	      3.14795605	     -4.76078140	      4.93245281	      0.43614813	      1.00286356	      0.30063246	     67.22494453	     -2.32681420	      0.95270741	     89.24548298	      5.85288448	      1.55762752	    -37.62066431	     -6.54960203	     -0.00000000	      5.51110263	     -5.72756644	    -10.34611807	     15.95732974	      4.70865390	      0.27850794	      1.65287856	      3.41282942	    -10.00000000	    -27.00110938	     13.43072196	      3.51107019	     -7.53730726	    -11.88713259	    -26.59616606	     65.53397700	     90.00000001	      0.00000000	      0.00000000	    -13.76110684	    -29.41524707	    -24.07570609	     89.37791494	     90.00000001	      0.00000000	      0.00000000
